<?xml version="1.0" encoding="UTF-8"?>
<svg id="Layer_1" data-name="Layer 1" xmlns="http://www.w3.org/2000/svg" viewBox="0 0 232.39 31.22">
  <defs>
    <style>
      .cls-1 {
        stroke-width: 0px;
      }
    </style>
  </defs>
  <path class="cls-1" d="m2.56,21.87v-10.37H0v-3.85h2.56V1.55h6v6.1h3.51v3.85h-3.51v9.05c0,1.51.83,1.89,2.15,1.89.53,0,1.13-.04,1.36-.04v4.49c-.53.15-1.7.3-3.36.3-3.58,0-6.15-1.17-6.15-5.32Z"/>
  <path class="cls-1" d="m14.18,0h6.15v10.03h.11c1.39-1.85,3.05-2.94,5.73-2.94,4.22,0,6.71,3.02,6.71,7.31v12.56h-6.15v-11.31c0-2.04-1.02-3.43-3.02-3.43s-3.39,1.7-3.39,4.07v10.67h-6.15V0h0Z"/>
  <path class="cls-1" d="m34.16,17.27c0-5.77,4.03-10.18,9.92-10.18,2.75,0,4.94.9,6.6,2.41,2.3,2.11,3.43,5.47,3.39,9.39h-13.88c.38,2.6,1.81,4.22,4.34,4.22,1.62,0,2.68-.72,3.21-1.92h6c-.42,1.73-1.55,3.39-3.24,4.56-1.62,1.13-3.58,1.77-6.03,1.77-6.37,0-10.29-4.41-10.29-10.26h-.02Zm13.69-2.04c-.23-2.3-1.66-3.77-3.66-3.77-2.34,0-3.54,1.47-3.96,3.77,0,0,7.62,0,7.62,0Z"/>
  <path class="cls-1" d="m62.73,7.65h5.92v2.64h.11c1.43-2.07,3.28-3.2,5.96-3.2,4.22,0,6.71,3.02,6.71,7.31v12.56h-6.15v-11.31c0-2.04-1.02-3.43-3.02-3.43s-3.39,1.7-3.39,4.07v10.67h-6.15V7.65h0Z"/>
  <path class="cls-1" d="m82.41,17.34c0-5.81,4.15-10.22,10.33-10.22s10.29,4.41,10.29,10.22-4.07,10.22-10.29,10.22-10.33-4.41-10.33-10.22Zm14.4,0c0-3.51-1.43-5.88-4.11-5.88s-4.07,2.38-4.07,5.88,1.4,5.84,4.07,5.84,4.11-2.34,4.11-5.84Z"/>
  <path class="cls-1" d="m104.96,7.65h5.88v3.02h.11c1.36-2.3,2.94-3.32,5.28-3.32.57,0,.94.04,1.21.15v5.28h-.15c-3.77-.53-6.18,1.32-6.18,5.5v8.67h-6.15s0-19.3,0-19.3Z"/>
  <path class="cls-1" d="m118.76,7.65h5.88v2.75h.11c1.21-2,3.05-3.32,5.84-3.32,2.53,0,4.45,1.32,5.43,3.39h.08c1.51-2.34,3.58-3.39,6.07-3.39,4.37,0,6.56,2.98,6.56,7.31v12.56h-6.15v-11.45c0-2.07-.87-3.28-2.71-3.28-1.96,0-3.05,1.62-3.05,3.92v10.82h-6.15v-11.46c0-2.07-.87-3.28-2.71-3.28s-3.05,1.62-3.05,3.92v10.82h-6.15s0-19.31,0-19.31Z"/>
  <path class="cls-1" d="m149.86,25.34c0-4.26,3.39-5.54,7.39-6.07,3.62-.45,4.9-.83,4.9-2.15,0-1.24-.79-2.07-2.64-2.07-1.96,0-2.94.87-3.13,2.49h-5.66c.15-3.58,2.9-6.64,8.75-6.64,2.9,0,4.86.53,6.26,1.58,1.66,1.21,2.45,3.09,2.45,5.5v9.73c0,1.54.15,2.41.68,2.75v.26h-5.96c-.3-.41-.49-1.17-.64-2.15h-.08c-1.13,1.62-2.83,2.64-5.73,2.64-3.85,0-6.6-2.07-6.6-5.88h.01Zm12.44-1.51v-2.3c-.79.41-1.92.72-3.17,1.02-2.38.53-3.36,1.13-3.36,2.6,0,1.55,1.13,2.15,2.64,2.15,2.3,0,3.88-1.4,3.88-3.47h0Z"/>
  <path class="cls-1" d="m170.45,0h6.22v26.96h-6.22V0Z"/>
  <path class="cls-1" d="m184.77,0h6.22v26.96h-6.22V0Z"/>
  <path class="cls-1" d="m192.2,21.57c0-4.26,3.39-5.54,7.39-6.07,3.62-.45,4.9-.83,4.9-2.15,0-1.24-.79-2.07-2.64-2.07-1.96,0-2.94.87-3.13,2.49h-5.66c.15-3.58,2.9-6.64,8.75-6.64,2.9,0,4.86.53,6.26,1.58,1.66,1.21,2.45,3.09,2.45,5.5v9.73c0,1.55.15,2.41.68,2.75v.26h-5.96c-.3-.42-.49-1.17-.64-2.15h-.08c-1.13,1.62-2.83,2.64-5.73,2.64-3.85,0-6.6-2.07-6.6-5.88h.01Zm12.44-1.51v-2.3c-.79.42-1.92.72-3.17,1.02-2.38.53-3.36,1.13-3.36,2.6,0,1.55,1.13,2.15,2.64,2.15,2.3,0,3.88-1.39,3.88-3.47h0Z"/>
  <path class="cls-1" d="m218.33,24.51h-.08v2.45h-5.88V0h6.15v9.84h.11c1.21-1.66,2.87-2.75,5.5-2.75,5.01,0,8.26,4.41,8.26,10.22,0,6.41-3.24,10.26-8.22,10.26-2.56,0-4.64-1.06-5.84-3.05h0Zm7.84-7.24c0-3.32-1.32-5.5-3.81-5.5-2.71,0-4.03,2.38-4.03,5.54s1.58,5.39,4.11,5.39,3.73-2.07,3.73-5.43Z"/>
</svg>