<?xml version="1.0" encoding="UTF-8"?>
<svg id="Layer_4" data-name="Layer 4" xmlns="http://www.w3.org/2000/svg" viewBox="0 0 286.35 51.43">
  <defs>
    <style>
      .cls-1 {
        fill: #1c75bc;
        stroke: #1c75bc;
      }

      .cls-1, .cls-2, .cls-3 {
        stroke-miterlimit: 10;
      }

      .cls-2 {
        fill: none;
        stroke: #1d75bc;
        stroke-width: 4.1px;
      }

      .cls-4 {
        fill: #1d75bc;
        stroke-width: 0px;
      }

      .cls-3 {
        fill: #fff;
        stroke: #1f76bc;
        stroke-width: 3.13px;
      }
    </style>
  </defs>
  <path class="cls-2" d="m150.2,41.5h-33.4c-28.78,0-21.63-38.96-28.78-38.96-7.7,0,0,38.96-28.78,38.96h-21.53"/>
  <g>
    <line class="cls-2" x1="148.79" y1="41.5" x2="271.1" y2="41.5"/>
    <polygon class="cls-4" points="268.01 46.02 284.9 41.5 268.01 36.97 268.01 46.02"/>
  </g>
  <polyline class="cls-3" points="100.21 34.78 87.79 34.78 75.36 34.78"/>
  <line class="cls-2" x1="1.97" y1="41.5" x2="37.71" y2="41.5"/>
  <g>
    <path class="cls-1" d="m5.68,37.4v-6.93h-3.23v-3.51h3.23v-3.89h4.24v3.89h4.32v3.51h-4.32v6.64c0,1.23.59,1.99,1.95,1.99.89,0,1.72-.15,2.34-.26v3.8c-.77.2-1.57.41-2.96.41-3.23,0-5.57-2.05-5.57-5.64Z"/>
    <path class="cls-1" d="m17.23,43.07v-25.59h4.24v6.43c0,1.67-.03,3.39-.12,4.94.59-.83,2.01-2.23,4.65-2.23s5.72,1.79,5.72,6.63v9.82h-4.24v-9.67c0-1.88-1.18-2.86-2.58-2.86s-3.41,1.31-3.41,4.37v8.15h-4.26Z"/>
    <path class="cls-1" d="m50.65,36.21h-11.82c.41,1.85,1.81,3.19,4.71,3.19,2.01,0,3.58-.46,5.86-1.48v3.71c-.77.58-3.2,1.39-5.95,1.39-5.78,0-8.94-3.65-8.94-8.2s3.23-8.23,8.29-8.23c3.82,0,7.97,2.43,7.97,7.82,0,.58-.06,1.28-.12,1.8Zm-4.21-3.04c-.12-1.3-1.24-2.99-3.7-2.99-2.04,0-3.35,1.25-3.82,2.99h7.52Z"/>
    <path class="cls-1" d="m111.9,42.63l-8.06-15.59h4.8l3.7,7.92,3.73-7.92h4.68l-8.15,15.59h-.71Z"/>
    <path class="cls-1" d="m136.9,36.19h-11.82c.42,1.85,1.81,3.18,4.71,3.18,2.01,0,3.58-.46,5.86-1.47v3.7c-.77.58-3.2,1.39-5.95,1.39-5.78,0-8.94-3.64-8.94-8.18s3.23-8.21,8.29-8.21c3.82,0,7.97,2.43,7.97,7.8,0,.58-.06,1.27-.12,1.79Zm-4.21-3.03c-.12-1.3-1.24-2.98-3.7-2.98-2.04,0-3.35,1.24-3.82,2.98h7.52Z"/>
    <path class="cls-1" d="m140.01,43.07v-16.04h4.09v2.62c.53-1.37,2.13-3.04,4.74-3.04.56,0,1.1.09,1.36.15v4.17c-.36-.09-.86-.18-1.36-.18-2.52,0-4.56,1.73-4.56,5.39v6.93h-4.26Z"/>
    <path class="cls-1" d="m150.79,34.85c0-4.74,3.52-8.23,7.94-8.23,1.9,0,3.82.96,4.89,2.3v-1.89h4.03v15.67h-4.03v-1.89c-1.07,1.34-2.99,2.27-4.89,2.27-4.41,0-7.94-3.49-7.94-8.23Zm12.59.19c0-2.47-1.72-4.55-4.09-4.55s-4.09,2.05-4.09,4.55,1.69,4.58,4.09,4.58,4.09-2.11,4.09-4.58Z"/>
    <path class="cls-1" d="m172.27,48.89v-4.12c2.04,1.06,3.85,1.77,6.13,1.77,3.41,0,4.92-1.56,4.92-4.27,0-.44,0-.91.03-1.38-1.18,1.38-3.08,2.18-4.77,2.18-4.47,0-7.97-3.47-7.97-8.21s3.52-8.24,7.94-8.24c1.9,0,3.82.97,4.89,2.32v-1.91h4.03v15.15c0,5.3-3.67,8.06-8.89,8.06-3.2,0-5.6-1-6.31-1.35Zm10.96-14.04c0-2.38-1.72-4.44-4.12-4.44s-4.09,2.03-4.09,4.44,1.72,4.47,4.09,4.47,4.12-2.06,4.12-4.47Z"/>
    <path class="cls-1" d="m206.6,36.24h-11.82c.42,1.86,1.81,3.2,4.71,3.2,2.01,0,3.58-.47,5.86-1.48v3.72c-.77.58-3.2,1.4-5.95,1.4-5.78,0-8.94-3.66-8.94-8.23s3.23-8.26,8.29-8.26c3.82,0,7.97,2.44,7.97,7.85,0,.58-.06,1.28-.12,1.8Zm-4.21-3.05c-.12-1.31-1.24-3-3.7-3-2.04,0-3.35,1.25-3.82,3h7.52Z"/>
    <path class="cls-1" d="m216.22,43.07v-25.59h4.26v25.59h-4.26Z"/>
    <path class="cls-1" d="m223.45,34.75c0-4.68,3.52-8.13,7.94-8.13,1.9,0,3.82.95,4.89,2.27v-1.87h4.03v15.49h-4.03v-1.87c-1.07,1.32-2.99,2.24-4.89,2.24-4.41,0-7.94-3.45-7.94-8.13Zm12.59,0c0-2.38-1.72-4.4-4.09-4.4s-4.09,1.98-4.09,4.4,1.69,4.43,4.09,4.43,4.09-2.04,4.09-4.43Z"/>
    <path class="cls-1" d="m248.27,40.62v1.89h-4v-25.02h4.24v6.23c0,1.83-.06,3.4-.12,4.86,1.18-1.31,3.02-2.15,4.8-2.15,4.41,0,7.91,3.49,7.91,8.23s-3.49,8.23-7.91,8.23c-1.9,0-3.85-.93-4.92-2.27Zm8.44-5.58c0-2.5-1.72-4.55-4.09-4.55s-4.09,2.08-4.09,4.55,1.72,4.58,4.09,4.58,4.09-2.08,4.09-4.58Z"/>
  </g>
</svg>